<svg id="icon" xmlns="http://www.w3.org/2000/svg" width="24" height="24" viewBox="0 0 24 24" stroke-linecap="round" stroke-linejoin="round">
  <path d="M 11.462891 3.5234375 A 1.5 1.5 0 0 0 10.25 4.25 A 1.87 1.87 0 0 0 10.529297 6.5292969 L 12 8 L 3.5 8 A 1.5 1.5 0 0 0 3.5 11 L 8.5 11 A 1.5 1.5 0 0 0 8.5 14 L 9.5 14 A 1.5 1.5 0 0 0 9.5 17 L 10.5 17 A 1.5 1.5 0 0 0 10.5 20 L 15 20 A 6 6 0 0 0 21 14 L 21 12.207031 L 21 12.205078 A 6 6 0 0 0 18.300781 7.1953125 L 18 7 C 17.521333 6.688 15.611484 5.5935104 12.271484 3.7148438 A 1.5 1.5 0 0 0 11.462891 3.5234375 z" />
</svg>
