<svg id="icon" xmlns="http://www.w3.org/2000/svg" width="24" height="24" viewBox="0 0 24 24" stroke-linecap="round" stroke-linejoin="round">
  <path d="M 16.761719,4.7617187 4.7617187,16.761719 a 1.75,1.75 0 0 0 0,2.476562 1.75,1.75 0 0 0 2.4765625,0 L 19.238281,7.2382812 a 1.75,1.75 0 0 0 0,-2.4765625 1.75,1.75 0 0 0 -2.476562,0 z" />
  <path d="m 6,4.25 a 1.75,1.75 0 0 0 -1.2382813,0.5117187 1.75,1.75 0 0 0 0,2.4765625 L 16.761719,19.238281 a 1.75,1.75 0 0 0 2.476562,0 1.75,1.75 0 0 0 0,-2.476562 L 7.2382812,4.7617187 A 1.75,1.75 0 0 0 6,4.25 Z" />
</svg>