<svg id="icon" xmlns="http://www.w3.org/2000/svg" width="24" height="24" viewBox="0 0 24 24" stroke-linecap="round" stroke-linejoin="round">
  <path d="M 7.7617187,2.7617188 2.7617188,7.7617187 a 1.750175,1.750175 0 0 0 0,2.4765623 l 4.9999999,5 a 1.75,1.75 0 0 0 2.4765623,0 1.75,1.75 0 0 0 0,-2.476562 L 6.4765625,9 10.238281,5.2382812 a 1.75,1.75 0 0 0 0,-2.4765624 1.75,1.75 0 0 0 -2.4765623,0 z" />
  <path d="M 4,7.25 A 1.75,1.75 0 0 0 2.25,9 1.75,1.75 0 0 0 4,10.75 h 10.5 c 2.091799,0 3.75,1.658202 3.75,3.75 0,2.091798 -1.658201,3.75 -3.75,3.75 H 11 A 1.75,1.75 0 0 0 9.25,20 1.75,1.75 0 0 0 11,21.75 h 3.5 c 3.983338,0 7.25,-3.266665 7.25,-7.25 0,-3.983335 -3.266662,-7.25 -7.25,-7.25 z" />
</svg>