<svg id="icon" xmlns="http://www.w3.org/2000/svg" width="24" height="24" viewBox="0 0 24 24" stroke-linecap="round" stroke-linejoin="round">
  <path d="m 12,2.1660156 c -3.7076433,0 -7.4927959,2.1406408 -9.0800781,6.1972657 A 1.75,1.75 0 0 0 3.9121094,10.628906 1.75,1.75 0 0 0 6.1796875,9.6367188 C 7.2452691,6.9134067 9.5840752,5.6660156 12,5.6660156 c 1.510402,0 2.951537,0.5524764 4.109375,1.5839844 h -1.160156 a 1.75,1.75 0 0 0 -1.75,1.75 1.75,1.75 0 0 0 1.75,1.75 h 5 a 1.750175,1.750175 0 0 0 0.126953,-0.126953 1.75,1.75 0 0 0 0.01172,0.0059 1.75,1.75 0 0 0 0.01367,-0.03125 A 1.750175,1.750175 0 0 0 21.699219,9 V 4 a 1.75,1.75 0 0 0 -1.75,-1.75 1.75,1.75 0 0 0 -1.75,1.75 V 4.5117187 C 16.411717,3.0233828 14.221247,2.1660156 12,2.1660156 Z" />
  <path d="m 4.0507812,13.25 a 1.750175,1.750175 0 0 0 -0.1269531,0.126953 1.75,1.75 0 0 0 -0.011719,-0.0059 1.75,1.75 0 0 0 -0.013672,0.03125 A 1.750175,1.750175 0 0 0 2.3007813,15 v 5 a 1.75,1.75 0 0 0 1.7499999,1.75 1.75,1.75 0 0 0 1.75,-1.75 V 19.488281 C 7.5882827,20.976617 9.7787533,21.833984 12,21.833984 c 3.707643,0 7.492796,-2.14064 9.080078,-6.197265 a 1.75,1.75 0 0 0 -0.992187,-2.265625 1.75,1.75 0 0 0 -2.267579,0.992187 C 16.754731,17.086593 14.415925,18.333984 12,18.333984 10.489598,18.333984 9.0484635,17.781508 7.890625,16.75 H 9.0507813 A 1.75,1.75 0 0 0 10.800781,15 1.75,1.75 0 0 0 9.0507813,13.25 Z" />
</svg>