<svg id="icon" xmlns="http://www.w3.org/2000/svg" width="24" height="24" viewBox="0 0 24 24" stroke-linecap="round" stroke-linejoin="round">
  <path d="M 11.5,3.25 C 8.7563432,3.25 6.25,5.2397472 6.25,8 A 1.75,1.75 0 0 0 8,9.75 1.75,1.75 0 0 0 9.75,8 c 0,-0.5534557 0.627664,-1.25 1.75,-1.25 h 1 c 1.122336,0 1.75,0.6965443 1.75,1.25 a 1.750175,1.750175 0 0 0 0.002,0.099609 c 0.03196,0.5635684 -0.299521,1.0627476 -0.832031,1.25 a 1.750175,1.750175 0 0 0 -0.04297,0.015625 c -1.591779,0.6071555 -2.626112,2.0384046 -3.066406,3.6816406 a 1.75,1.75 0 0 0 1.236328,2.142578 1.75,1.75 0 0 0 2.142578,-1.236328 c 0.210539,-0.785757 0.66547,-1.216088 0.933594,-1.318359 l -0.04297,0.01563 C 16.547832,11.958449 17.83179,10.042132 17.742187,7.9628906 17.718052,5.2234869 15.230353,3.25 12.5,3.25 Z" />
  <path d="M 12,17.25 A 1.75,1.75 0 0 0 10.25,19 v 0.0098 a 1.75,1.75 0 0 0 1.75,1.75 1.75,1.75 0 0 0 1.75,-1.75 V 19 A 1.75,1.75 0 0 0 12,17.25 Z" />
</svg>